<svg width="139" height="40" viewBox="0 0 139 40" fill="none" xmlns="http://www.w3.org/2000/svg">
<rect y="7" width="24" height="24" fill="white"/>
<path d="M0 11H19V31" stroke="black"/>
<path d="M6.5 7V22.5H24" stroke="black"/>
<path d="M0 19.5H13V31" stroke="black"/>
<path d="M36.9205 6.36364H39.7273V13.8693C39.7273 14.7367 39.5208 15.4924 39.108 16.1364C38.6951 16.7765 38.1193 17.2727 37.3807 17.625C36.642 17.9735 35.7841 18.1477 34.8068 18.1477C33.8182 18.1477 32.9545 17.9735 32.2159 17.625C31.4773 17.2727 30.9034 16.7765 30.4943 16.1364C30.0852 15.4924 29.8807 14.7367 29.8807 13.8693V6.36364H32.6932V13.625C32.6932 14.0265 32.7803 14.3845 32.9545 14.6989C33.1326 15.0133 33.3807 15.2595 33.6989 15.4375C34.017 15.6155 34.3864 15.7045 34.8068 15.7045C35.2273 15.7045 35.5947 15.6155 35.9091 15.4375C36.2273 15.2595 36.4754 15.0133 36.6534 14.6989C36.8314 14.3845 36.9205 14.0265 36.9205 13.625V6.36364ZM41.4901 18V6.36364H46.2969C47.1681 6.36364 47.92 6.52083 48.5526 6.83523C49.1889 7.14583 49.6795 7.5928 50.0241 8.17614C50.3688 8.75568 50.5412 9.44318 50.5412 10.2386C50.5412 11.0455 50.3651 11.7311 50.0128 12.2955C49.6605 12.8561 49.1605 13.2841 48.5128 13.5795C47.8651 13.8712 47.098 14.017 46.2116 14.017H43.1719V11.8011H45.6889C46.1132 11.8011 46.4673 11.7462 46.7514 11.6364C47.0393 11.5227 47.2571 11.3523 47.4048 11.125C47.5526 10.8939 47.6264 10.5985 47.6264 10.2386C47.6264 9.87879 47.5526 9.58144 47.4048 9.34659C47.2571 9.10795 47.0393 8.92992 46.7514 8.8125C46.4635 8.69129 46.1094 8.63068 45.6889 8.63068H44.3026V18H41.4901ZM48.0412 12.6818L50.9389 18H47.8707L45.0298 12.6818H48.0412ZM52.0838 18V6.36364H56.9361C57.8073 6.36364 58.5365 6.48674 59.1236 6.73295C59.7145 6.97917 60.1577 7.32386 60.4531 7.76705C60.7524 8.21023 60.902 8.72348 60.902 9.30682C60.902 9.75 60.8092 10.1458 60.6236 10.4943C60.438 10.839 60.1823 11.125 59.8565 11.3523C59.5308 11.5795 59.1539 11.7386 58.7259 11.8295V11.9432C59.1955 11.9659 59.6293 12.0928 60.027 12.3239C60.4285 12.5549 60.7505 12.8769 60.9929 13.2898C61.2353 13.6989 61.3565 14.1837 61.3565 14.7443C61.3565 15.3693 61.1974 15.928 60.8793 16.4205C60.5611 16.9091 60.1009 17.2955 59.4986 17.5795C58.8963 17.8598 58.1652 18 57.3054 18H52.0838ZM54.8963 15.733H56.6349C57.2448 15.733 57.6937 15.6174 57.9815 15.3864C58.2732 15.1553 58.419 14.8333 58.419 14.4205C58.419 14.1212 58.349 13.8636 58.2088 13.6477C58.0687 13.428 57.8698 13.2595 57.6122 13.142C57.3546 13.0208 57.0459 12.9602 56.6861 12.9602H54.8963V15.733ZM54.8963 11.1477H56.4531C56.7599 11.1477 57.0327 11.0966 57.2713 10.9943C57.5099 10.892 57.6955 10.7443 57.8281 10.5511C57.9645 10.358 58.0327 10.125 58.0327 9.85227C58.0327 9.46212 57.8944 9.1553 57.6179 8.93182C57.3414 8.70833 56.9683 8.59659 56.4986 8.59659H54.8963V11.1477ZM65.2259 18H62.2031L66.1293 6.36364H69.8736L73.7997 18H70.777L68.044 9.29545H67.9531L65.2259 18ZM64.8224 13.4205H71.1406V15.5568H64.8224V13.4205ZM84.956 6.36364V18H82.5696L77.9389 11.2841H77.8651V18H75.0526V6.36364H77.473L82.0526 13.0682H82.1491V6.36364H84.956ZM92.804 6.36364L95.4062 14.8864H95.5028L98.1051 6.36364H101.253L97.3267 18H93.5824L89.6562 6.36364H92.804ZM105.318 6.36364V18H102.506V6.36364H105.318ZM113.374 9.85227C113.336 9.43561 113.167 9.11174 112.868 8.88068C112.572 8.64583 112.15 8.52841 111.601 8.52841C111.237 8.52841 110.934 8.57576 110.692 8.67045C110.449 8.76515 110.268 8.89583 110.146 9.0625C110.025 9.22538 109.963 9.41288 109.959 9.625C109.951 9.79924 109.985 9.95265 110.061 10.0852C110.141 10.2178 110.254 10.3352 110.402 10.4375C110.554 10.536 110.735 10.6231 110.947 10.6989C111.16 10.7746 111.398 10.8409 111.663 10.8977L112.663 11.125C113.239 11.25 113.747 11.4167 114.186 11.625C114.629 11.8333 115 12.0814 115.3 12.3693C115.603 12.6572 115.832 12.9886 115.987 13.3636C116.143 13.7386 116.222 14.1591 116.226 14.625C116.222 15.3598 116.036 15.9905 115.669 16.517C115.302 17.0436 114.773 17.447 114.084 17.7273C113.398 18.0076 112.571 18.1477 111.601 18.1477C110.627 18.1477 109.779 18.0019 109.055 17.7102C108.332 17.4186 107.769 16.9754 107.368 16.3807C106.966 15.786 106.76 15.0341 106.749 14.125H109.442C109.464 14.5 109.565 14.8125 109.743 15.0625C109.921 15.3125 110.165 15.5019 110.476 15.6307C110.79 15.7595 111.154 15.8239 111.567 15.8239C111.946 15.8239 112.268 15.7727 112.533 15.6705C112.802 15.5682 113.008 15.4261 113.152 15.2443C113.296 15.0625 113.37 14.8542 113.374 14.6193C113.37 14.3996 113.302 14.2121 113.169 14.0568C113.036 13.8977 112.832 13.7614 112.555 13.6477C112.283 13.5303 111.934 13.4223 111.51 13.3239L110.294 13.0398C109.286 12.8087 108.493 12.4356 107.913 11.9205C107.334 11.4015 107.046 10.7008 107.05 9.81818C107.046 9.09848 107.239 8.4678 107.629 7.92614C108.019 7.38447 108.559 6.96212 109.249 6.65909C109.938 6.35606 110.724 6.20455 111.607 6.20455C112.508 6.20455 113.29 6.35795 113.953 6.66477C114.62 6.9678 115.137 7.39394 115.504 7.94318C115.872 8.49242 116.059 9.12879 116.067 9.85227H113.374ZM117.266 8.64773V6.36364H127.101V8.64773H123.572V18H120.8V8.64773H117.266ZM129.538 18H126.516L130.442 6.36364H134.186L138.112 18H135.089L132.357 9.29545H132.266L129.538 18ZM129.135 13.4205H135.453V15.5568H129.135V13.4205Z" fill="white"/>
<path d="M30.1307 31H29.1989L31.2926 25.1818H32.3068L34.4006 31H33.4688L31.8239 26.2386H31.7784L30.1307 31ZM30.2869 28.7216H33.3097V29.4602H30.2869V28.7216ZM35.1726 31V26.6364H35.9936V27.3295H36.0391C36.1186 27.0947 36.2588 26.91 36.4595 26.7756C36.6622 26.6392 36.8913 26.571 37.147 26.571C37.2 26.571 37.2625 26.5729 37.3345 26.5767C37.4084 26.5805 37.4661 26.5852 37.5078 26.5909V27.4034C37.4737 27.3939 37.4131 27.3835 37.326 27.3722C37.2389 27.3589 37.1518 27.3523 37.0646 27.3523C36.8639 27.3523 36.6849 27.3949 36.5277 27.4801C36.3724 27.5634 36.2493 27.6799 36.1584 27.8295C36.0675 27.9773 36.022 28.1458 36.022 28.3352V31H35.1726ZM39.9247 31.0881C39.5024 31.0881 39.1387 30.9924 38.8338 30.8011C38.5308 30.608 38.2978 30.3419 38.1349 30.0028C37.9721 29.6638 37.8906 29.2756 37.8906 28.8381C37.8906 28.3949 37.974 28.0038 38.1406 27.6648C38.3073 27.3239 38.5421 27.0578 38.8452 26.8665C39.1482 26.6752 39.5052 26.5795 39.9162 26.5795C40.2476 26.5795 40.5431 26.6411 40.8026 26.7642C41.062 26.8854 41.2713 27.0559 41.4304 27.2756C41.5914 27.4953 41.687 27.7519 41.7173 28.0455H40.8906C40.8452 27.8409 40.741 27.6648 40.5781 27.517C40.4171 27.3693 40.2012 27.2955 39.9304 27.2955C39.6937 27.2955 39.4863 27.358 39.3082 27.483C39.1321 27.6061 38.9948 27.7822 38.8963 28.0114C38.7978 28.2386 38.7486 28.5076 38.7486 28.8182C38.7486 29.1364 38.7969 29.411 38.8935 29.642C38.9901 29.8731 39.1264 30.0521 39.3026 30.179C39.4806 30.3059 39.6899 30.3693 39.9304 30.3693C40.0914 30.3693 40.2372 30.34 40.3679 30.2812C40.5005 30.2206 40.6113 30.1345 40.7003 30.0227C40.7912 29.911 40.8546 29.7765 40.8906 29.6193H41.7173C41.687 29.9015 41.5952 30.1534 41.4418 30.375C41.2884 30.5966 41.0829 30.7708 40.8253 30.8977C40.5696 31.0246 40.2694 31.0881 39.9247 31.0881ZM43.4751 28.4091V31H42.6257V25.1818H43.4638V27.3466H43.5178C43.62 27.1117 43.7763 26.9252 43.9865 26.7869C44.1967 26.6487 44.4714 26.5795 44.8104 26.5795C45.1096 26.5795 45.371 26.6411 45.5945 26.7642C45.8198 26.8873 45.9941 27.071 46.1172 27.3153C46.2422 27.5578 46.3047 27.8608 46.3047 28.2244V31H45.4553V28.3267C45.4553 28.0066 45.3729 27.7585 45.2081 27.5824C45.0433 27.4044 44.8142 27.3153 44.5206 27.3153C44.3198 27.3153 44.1399 27.358 43.9808 27.4432C43.8236 27.5284 43.6996 27.6534 43.6087 27.8182C43.5196 27.9811 43.4751 28.178 43.4751 28.4091ZM47.4382 31V26.6364H48.2876V31H47.4382ZM47.8672 25.9631C47.7195 25.9631 47.5926 25.9138 47.4865 25.8153C47.3823 25.715 47.3303 25.5956 47.3303 25.4574C47.3303 25.3172 47.3823 25.1979 47.4865 25.0994C47.5926 24.9991 47.7195 24.9489 47.8672 24.9489C48.0149 24.9489 48.1409 24.9991 48.245 25.0994C48.3511 25.1979 48.4041 25.3172 48.4041 25.4574C48.4041 25.5956 48.3511 25.715 48.245 25.8153C48.1409 25.9138 48.0149 25.9631 47.8672 25.9631ZM51.4673 26.6364V27.3182H49.0838V26.6364H51.4673ZM49.723 25.5909H50.5724V29.7188C50.5724 29.8835 50.5971 30.0076 50.6463 30.0909C50.6955 30.1723 50.759 30.2282 50.8366 30.2585C50.9162 30.2869 51.0024 30.3011 51.0952 30.3011C51.1634 30.3011 51.223 30.2964 51.2741 30.2869C51.3253 30.2775 51.3651 30.2699 51.3935 30.2642L51.5469 30.9659C51.4976 30.9848 51.4276 31.0038 51.3366 31.0227C51.2457 31.0436 51.1321 31.0549 50.9957 31.0568C50.7723 31.0606 50.5639 31.0208 50.3707 30.9375C50.1776 30.8542 50.0213 30.7254 49.902 30.5511C49.7827 30.3769 49.723 30.1581 49.723 29.8949V25.5909ZM54.2408 31.0881C53.8108 31.0881 53.4406 30.9962 53.13 30.8125C52.8213 30.6269 52.5826 30.3665 52.4141 30.0312C52.2474 29.6941 52.1641 29.2992 52.1641 28.8466C52.1641 28.3996 52.2474 28.0057 52.4141 27.6648C52.5826 27.3239 52.8175 27.0578 53.1186 26.8665C53.4216 26.6752 53.7758 26.5795 54.1811 26.5795C54.4273 26.5795 54.666 26.6203 54.897 26.7017C55.1281 26.7831 55.3355 26.911 55.5192 27.0852C55.7029 27.2595 55.8478 27.4858 55.9538 27.7642C56.0599 28.0407 56.1129 28.3769 56.1129 28.7727V29.0739H52.6442V28.4375H55.2805C55.2805 28.214 55.2351 28.0161 55.1442 27.8438C55.0533 27.6695 54.9254 27.5322 54.7607 27.4318C54.5978 27.3314 54.4065 27.2812 54.1868 27.2812C53.9482 27.2812 53.7398 27.34 53.5618 27.4574C53.3857 27.5729 53.2493 27.7244 53.1527 27.9119C53.058 28.0975 53.0107 28.2992 53.0107 28.517V29.0142C53.0107 29.3059 53.0618 29.554 53.1641 29.7585C53.2682 29.9631 53.4131 30.1193 53.5987 30.2273C53.7843 30.3333 54.0012 30.3864 54.2493 30.3864C54.4103 30.3864 54.5571 30.3636 54.6896 30.3182C54.8222 30.2708 54.9368 30.2008 55.0334 30.108C55.13 30.0152 55.2038 29.9006 55.255 29.7642L56.0589 29.9091C55.9946 30.1458 55.879 30.3532 55.7124 30.5312C55.5476 30.7074 55.3402 30.8447 55.0902 30.9432C54.8421 31.0398 54.5589 31.0881 54.2408 31.0881ZM58.8935 31.0881C58.4711 31.0881 58.1075 30.9924 57.8026 30.8011C57.4995 30.608 57.2666 30.3419 57.1037 30.0028C56.9408 29.6638 56.8594 29.2756 56.8594 28.8381C56.8594 28.3949 56.9427 28.0038 57.1094 27.6648C57.276 27.3239 57.5109 27.0578 57.8139 26.8665C58.117 26.6752 58.474 26.5795 58.8849 26.5795C59.2164 26.5795 59.5118 26.6411 59.7713 26.7642C60.0308 26.8854 60.2401 27.0559 60.3991 27.2756C60.5601 27.4953 60.6558 27.7519 60.6861 28.0455H59.8594C59.8139 27.8409 59.7098 27.6648 59.5469 27.517C59.3859 27.3693 59.17 27.2955 58.8991 27.2955C58.6624 27.2955 58.455 27.358 58.277 27.483C58.1009 27.6061 57.9635 27.7822 57.8651 28.0114C57.7666 28.2386 57.7173 28.5076 57.7173 28.8182C57.7173 29.1364 57.7656 29.411 57.8622 29.642C57.9588 29.8731 58.0952 30.0521 58.2713 30.179C58.4493 30.3059 58.6586 30.3693 58.8991 30.3693C59.0601 30.3693 59.206 30.34 59.3366 30.2812C59.4692 30.2206 59.58 30.1345 59.669 30.0227C59.7599 29.911 59.8234 29.7765 59.8594 29.6193H60.6861C60.6558 29.9015 60.5639 30.1534 60.4105 30.375C60.2571 30.5966 60.0516 30.7708 59.794 30.8977C59.5384 31.0246 59.2382 31.0881 58.8935 31.0881ZM63.6314 26.6364V27.3182H61.2479V26.6364H63.6314ZM61.8871 25.5909H62.7365V29.7188C62.7365 29.8835 62.7611 30.0076 62.8104 30.0909C62.8596 30.1723 62.9231 30.2282 63.0007 30.2585C63.0803 30.2869 63.1664 30.3011 63.2592 30.3011C63.3274 30.3011 63.3871 30.2964 63.4382 30.2869C63.4893 30.2775 63.5291 30.2699 63.5575 30.2642L63.7109 30.9659C63.6617 30.9848 63.5916 31.0038 63.5007 31.0227C63.4098 31.0436 63.2962 31.0549 63.1598 31.0568C62.9363 31.0606 62.728 31.0208 62.5348 30.9375C62.3416 30.8542 62.1854 30.7254 62.0661 30.5511C61.9467 30.3769 61.8871 30.1581 61.8871 29.8949V25.5909ZM67.3352 29.1903V26.6364H68.1875V31H67.3523V30.2443H67.3068C67.2064 30.4773 67.0455 30.6714 66.8239 30.8267C66.6042 30.9801 66.3305 31.0568 66.0028 31.0568C65.7225 31.0568 65.4744 30.9953 65.2585 30.8722C65.0445 30.7472 64.8759 30.5625 64.7528 30.3182C64.6316 30.0739 64.571 29.7718 64.571 29.4119V26.6364H65.4205V29.3097C65.4205 29.607 65.5028 29.8437 65.6676 30.0199C65.8324 30.196 66.0464 30.2841 66.3097 30.2841C66.4688 30.2841 66.6269 30.2443 66.7841 30.1648C66.9432 30.0852 67.0748 29.965 67.179 29.804C67.285 29.643 67.3371 29.4384 67.3352 29.1903ZM69.3288 31V26.6364H70.1499V27.3295H70.1953C70.2749 27.0947 70.415 26.91 70.6158 26.7756C70.8184 26.6392 71.0476 26.571 71.3033 26.571C71.3563 26.571 71.4188 26.5729 71.4908 26.5767C71.5646 26.5805 71.6224 26.5852 71.6641 26.5909V27.4034C71.63 27.3939 71.5694 27.3835 71.4822 27.3722C71.3951 27.3589 71.308 27.3523 71.2209 27.3523C71.0201 27.3523 70.8411 27.3949 70.6839 27.4801C70.5286 27.5634 70.4055 27.6799 70.3146 27.8295C70.2237 27.9773 70.1783 28.1458 70.1783 28.3352V31H69.3288ZM74.1236 31.0881C73.6937 31.0881 73.3234 30.9962 73.0128 30.8125C72.7041 30.6269 72.4654 30.3665 72.2969 30.0312C72.1302 29.6941 72.0469 29.2992 72.0469 28.8466C72.0469 28.3996 72.1302 28.0057 72.2969 27.6648C72.4654 27.3239 72.7003 27.0578 73.0014 26.8665C73.3045 26.6752 73.6586 26.5795 74.0639 26.5795C74.3101 26.5795 74.5488 26.6203 74.7798 26.7017C75.0109 26.7831 75.2183 26.911 75.402 27.0852C75.5857 27.2595 75.7306 27.4858 75.8366 27.7642C75.9427 28.0407 75.9957 28.3769 75.9957 28.7727V29.0739H72.527V28.4375H75.1634C75.1634 28.214 75.1179 28.0161 75.027 27.8438C74.9361 27.6695 74.8082 27.5322 74.6435 27.4318C74.4806 27.3314 74.2893 27.2812 74.0696 27.2812C73.831 27.2812 73.6226 27.34 73.4446 27.4574C73.2685 27.5729 73.1321 27.7244 73.0355 27.9119C72.9408 28.0975 72.8935 28.2992 72.8935 28.517V29.0142C72.8935 29.3059 72.9446 29.554 73.0469 29.7585C73.151 29.9631 73.2959 30.1193 73.4815 30.2273C73.6671 30.3333 73.884 30.3864 74.1321 30.3864C74.2931 30.3864 74.4399 30.3636 74.5724 30.3182C74.705 30.2708 74.8196 30.2008 74.9162 30.108C75.0128 30.0152 75.0866 29.9006 75.1378 29.7642L75.9418 29.9091C75.8774 30.1458 75.7618 30.3532 75.5952 30.5312C75.4304 30.7074 75.223 30.8447 74.973 30.9432C74.7249 31.0398 74.4418 31.0881 74.1236 31.0881Z" fill="white"/>
</svg>
